<svg t="1658368887029" class="icon" viewBox="0 0 1024 1024" version="1.1" xmlns="http://www.w3.org/2000/svg" p-id="4190"
  width="32" height="32">
  <path d="M512 512m-414 0a414 414 0 1 0 828 0 414 414 0 1 0-828 0Z" fill="#F0C48A" p-id="4191"></path>
  <path d="M121 533h794v391.2h-794z" fill="#A4CFF2" p-id="4192"></path>
  <path d="M121 533H512v391.2H121z" fill="#D3E6F8" p-id="4193"></path>
  <path d="M852.2 537.6h63v386.8h-63z" fill="#7BABF1" p-id="4194"></path>
  <path d="M449 537.6H512v386.8h-63z" fill="#A4CFF2" p-id="4195"></path>
  <path d="M740.4 267.4l272.6 265.6H512.2l-109.8-254z" fill="#FD919E" p-id="4196"></path>
  <path d="M666.2 260.4l271.4 271h61.8L726.4 260.4z" fill="#E8677D" p-id="4197"></path>
  <path d="M316.6 533H11.8l152.4-187.6 152.4-187.6 152.6 187.6 152.4 187.6z" fill="#FD919E" p-id="4198"></path>
  <path d="M275.8 208.2l273.6 323.2h59.2L316.2 157.8z" fill="#E8677D" p-id="4199"></path>
  <path
    d="M954.6 1001.2H70.2c-21.4 0-38.6-17.2-38.6-38.6 0-21.4 17.2-38.6 38.6-38.6h884.4c21.4 0 38.6 17.2 38.6 38.6 0 21.4-17.2 38.6-38.6 38.6z"
    fill="#FD919E" p-id="4200"></path>
  <path d="M956.8 1001.2h-105.4v-76.8h105.4c21.2 0 38.4 17.2 38.4 38.4s-17.2 38.4-38.4 38.4z" fill="#E8677D"
    p-id="4201"></path>
  <path
    d="M249.6 456c-26.4 0-47.6-21.4-47.6-47.6 0-26.4 21.4-47.6 47.6-47.6 7.6 0 14.8 1.8 21 5 13-17.2 33.6-28.4 57-28.4 35.4 0 64.8 26 70.2 59.8 1.6-0.4 3.4-0.4 5.2-0.4 16.4 0 29.8 13.4 29.8 29.8s-13.4 29.8-29.8 29.8h-153.4zM635 636.8h167.6v167.6h-167.6z"
    fill="#FFFFFF" p-id="4202"></path>
  <path d="M316.6 682c-47 0-85.2 38.2-85.2 85.2v157h170.2v-157c0.2-47-38-85.2-85-85.2z" fill="#7BABF1" p-id="4203">
  </path>
  <path
    d="M631.4 84c-3 0-6-1.2-8.2-3.4-29.6-29.6-69.2-46-111.2-46s-81.4 16.4-111.2 46c-4.6 4.6-12 4.6-16.6 0-4.6-4.6-4.6-12 0-16.6C418.4 29.8 463.8 11 512 11s93.6 18.8 127.8 53c4.6 4.6 4.6 12 0 16.6-2.4 2.2-5.4 3.4-8.4 3.4z"
    fill="#4C4372" p-id="4204"></path>
  <path
    d="M593.6 121.8c-3 0-6-1.2-8.2-3.4-40.4-40.4-106.2-40.4-146.6 0-4.6 4.6-12 4.6-16.6 0-4.6-4.6-4.6-12 0-16.6 49.6-49.6 130.2-49.6 179.8 0 4.6 4.6 4.6 12 0 16.6-2.4 2.2-5.4 3.4-8.4 3.4z"
    fill="#4C4372" p-id="4205"></path>
  <path
    d="M554 161.4c-3 0-6-1.2-8.2-3.4-9-9-21-14-33.8-14-12.8 0-24.8 5-33.8 14-4.6 4.6-12 4.6-16.6 0-4.6-4.6-4.6-12 0-16.6 13.4-13.4 31.4-20.8 50.4-20.8s36.8 7.4 50.4 20.8c4.6 4.6 4.6 12 0 16.6-2.4 2.2-5.4 3.4-8.4 3.4z"
    fill="#4C4372" p-id="4206"></path>
  <path d="M512 191.6m-24.4 0a24.4 24.4 0 1 0 48.8 0 24.4 24.4 0 1 0-48.8 0Z" fill="#4C4372" p-id="4207"></path>
  <path
    d="M403.2 467.8h-153.4c-32.8 0-59.4-26.6-59.4-59.4s26.6-59.4 59.4-59.4c6 0 11.8 0.8 17.6 2.6 15.6-16.8 37.2-26.2 60.4-26.2 37.4 0 69.4 24.6 79.6 59.6 21 2 37.4 19.8 37.4 41.2-0.2 23-18.8 41.6-41.6 41.6z m-153.6-95.2c-19.8 0-36 16.2-36 36s16.2 36 36 36h153.4c10 0 18-8 18-18 0-11-9.8-19.8-21.2-17.6-3.2 0.6-6.2-0.2-8.8-2-2.6-1.8-4.2-4.6-4.8-7.8-4.6-29-29.4-50-58.6-50-18.8 0-36.2 8.6-47.6 23.8-3.4 4.6-9.6 6-14.6 3.4-4.8-2.6-10.2-3.8-15.8-3.8zM512.2 935.8H121c-6.4 0-11.8-5.2-11.8-11.8V533c0-6.4 5.2-11.8 11.8-11.8h391.2c6.4 0 11.8 5.2 11.8 11.8v391.2c0 6.4-5.2 11.6-11.8 11.6zM132.8 912.4h367.6V544.8H132.8v367.6z"
    fill="#4C4372" p-id="4208"></path>
  <path
    d="M621.6 544.8H11.8c-4.6 0-8.6-2.6-10.6-6.6-2-4-1.4-9 1.4-12.4L307.6 150.4c2.2-2.8 5.6-4.4 9.2-4.4 3.6 0 6.8 1.6 9.2 4.4l305 375.2c2.8 3.6 3.4 8.4 1.4 12.4-2.2 4.2-6.2 6.8-10.8 6.8zM36.4 521.2h560.6L316.6 176.4 36.4 521.2zM954.6 1013H70.2c-27.8 0-50.4-22.6-50.4-50.4 0-27.8 22.6-50.4 50.4-50.4h884.4c27.8 0 50.4 22.6 50.4 50.4 0 27.8-22.6 50.4-50.4 50.4zM70.2 935.8c-14.8 0-26.8 12-26.8 26.8s12 26.8 26.8 26.8h884.4c14.8 0 26.8-12 26.8-26.8s-12-26.8-26.8-26.8H70.2z"
    fill="#4C4372" p-id="4209"></path>
  <path
    d="M914.4 935.8H511.4c-6.4 0-11.8-5.2-11.8-11.8s5.2-11.8 11.8-11.8h391.4V544.8H621.8c-6.4 0-11.8-5.2-11.8-11.8s5.2-11.8 11.8-11.8h292.6c6.4 0 11.8 5.2 11.8 11.8v391.2c0 6.4-5.2 11.6-11.8 11.6z"
    fill="#4C4372" p-id="4210"></path>
  <path
    d="M1012.2 544.8h-148c-6.4 0-11.8-5.2-11.8-11.8s5.2-11.8 11.8-11.8h119.4L736.8 280H405.4c-6.4 0-11.8-5.2-11.8-11.8 0-6.4 5.2-11.8 11.8-11.8h336c3 0 6 1.2 8.2 3.4l270.8 264.8c3.4 3.4 4.4 8.4 2.6 12.8-1.6 4.4-6 7.4-10.8 7.4zM401.8 935.8h-170.2c-6.4 0-11.8-5.2-11.8-11.8v-157c0-53.4 43.4-96.8 96.8-96.8s96.8 43.4 96.8 96.8V924c0.2 6.6-5.2 11.8-11.6 11.8z m-158.6-23.4H390v-145.2c0-40.4-33-73.4-73.4-73.4s-73.4 33-73.4 73.4v145.2z"
    fill="#4C4372" p-id="4211"></path>
  <path d="M773 640.2h23.2v158.4h-23.2zM689 640.2h23.2v158.4h-23.2z" fill="#D3E6F8" p-id="4212"></path>
  <path
    d="M802.6 816.2h-167.6c-6.4 0-11.8-5.2-11.8-11.8v-167.6c0-6.4 5.2-11.8 11.8-11.8h167.6c6.4 0 11.8 5.2 11.8 11.8v167.6c0 6.4-5.2 11.8-11.8 11.8z m-155.8-23.6h144.2v-144.2h-144.2v144.2z"
    fill="#4C4372" p-id="4213"></path>
  <path
    d="M718.8 810.8c-6.4 0-11.8-5.2-11.8-11.8v-162.4c0-6.4 5.2-11.8 11.8-11.8s11.8 5.2 11.8 11.8v162.4c0 6.6-5.2 11.8-11.8 11.8z"
    fill="#4C4372" p-id="4214"></path>
  <path
    d="M800 729.6h-162.4c-6.4 0-11.8-5.2-11.8-11.8 0-6.4 5.2-11.8 11.8-11.8H800c6.4 0 11.8 5.2 11.8 11.8 0 6.6-5.2 11.8-11.8 11.8z"
    fill="#4C4372" p-id="4215"></path>
</svg>